<svg aria-hidden="true" style="position: absolute; width: 0; height: 0; overflow: hidden;" version="1.1" xmlns="http://www.w3.org/2000/svg" xmlns:xlink="http://www.w3.org/1999/xlink">
<defs>
<symbol id="icon-logo" viewBox="0 0 78 32">
<path fill="none" stroke="#000" style="stroke: var(--color1, #000)" stroke-linejoin="round" stroke-linecap="round" stroke-miterlimit="4" stroke-width="1.641" d="M9.026 9.613l-8.205 8.205 8.205 8.205M25.436 9.613l8.205 8.205-8.205 8.205"></path>
<path fill="#000" style="fill: var(--color1, #000)" d="M20.131 3.553l-7.046 26.294c-0.079 0.288-0.339 0.497-0.647 0.497-0.37 0-0.67-0.3-0.67-0.67 0-0.062 0.008-0.121 0.024-0.178l-0.001 0.005 7.046-26.295c0.079-0.288 0.339-0.496 0.647-0.496 0.37 0 0.67 0.3 0.67 0.67 0 0.062-0.008 0.122-0.024 0.178l0.001-0.005z"></path>
<path fill="#d9d9d9" style="fill: var(--color2, #d9d9d9)" d="M18.837 3.206c0.079-0.288 0.339-0.496 0.647-0.496 0.37 0 0.67 0.3 0.67 0.67 0 0.062-0.008 0.122-0.024 0.178l0.001-0.005-0.858 3.202-1.294-0.347z"></path>
<path fill="none" stroke="#000" style="stroke: var(--color1, #000)" stroke-linejoin="miter" stroke-linecap="round" stroke-miterlimit="4" stroke-width="0.8205" d="M21.083 5.177l2.588 0.693M14.613 3.444l2.588 0.693M16.12 0.409l1.343 2.306M14.43 6.715l2.315-1.325M20.739 6.46l1.343 2.306M21.456 3.783l2.316-1.324"></path>
<path fill="#000" style="fill: var(--color1, #000)" d="M45.141 11.782q-1.024 0-1.851-0.453c-0.539-0.298-0.976-0.723-1.281-1.235l-0.009-0.015c-0.291-0.505-0.463-1.11-0.463-1.756 0-0.016 0-0.032 0-0.048l-0 0.002q0-0.994 0.463-1.792c0.313-0.534 0.754-0.962 1.282-1.252l0.017-0.009q0.827-0.453 1.851-0.453 0.768 0 1.418 0.256t1.103 0.748l-0.463 0.463q-0.807-0.817-2.038-0.817c-0.011-0-0.024-0-0.037-0-0.532 0-1.032 0.139-1.465 0.382l0.015-0.008q-0.67 0.374-1.054 1.024c-0.235 0.408-0.374 0.896-0.374 1.418 0 0.014 0 0.028 0 0.041l-0-0.002q0 0.807 0.374 1.457 0.384 0.65 1.054 1.024c0.418 0.236 0.918 0.374 1.45 0.374 0.013 0 0.026-0 0.039-0l-0.002 0q1.241 0 2.038-0.827l0.463 0.463q-0.453 0.492-1.113 0.758c-0.41 0.162-0.885 0.256-1.382 0.256-0.013 0-0.025-0-0.038-0h0.002zM50.964 11.772c-0.013 0-0.029 0-0.044 0-0.479 0-0.928-0.124-1.319-0.342l0.014 0.007c-0.397-0.228-0.717-0.548-0.939-0.933l-0.006-0.012c-0.217-0.379-0.345-0.832-0.345-1.316 0-0.015 0-0.030 0-0.045l-0 0.002q0-0.758 0.345-1.359t0.945-0.935c0.376-0.211 0.826-0.335 1.305-0.335 0.016 0 0.031 0 0.046 0l-0.002-0q0.748 0 1.349 0.335t0.935 0.935q0.345 0.601 0.345 1.359t-0.345 1.359c-0.223 0.397-0.541 0.718-0.923 0.939l-0.012 0.006c-0.376 0.211-0.826 0.335-1.305 0.335-0.016 0-0.031-0-0.046-0l0.002 0zM50.964 11.152q0.551 0 0.985-0.246 0.443-0.256 0.689-0.719t0.246-1.054-0.246-1.054-0.689-0.709c-0.272-0.161-0.6-0.256-0.95-0.256-0.012 0-0.025 0-0.037 0l0.002-0q-0.551 0-0.994 0.256-0.433 0.246-0.689 0.709-0.246 0.463-0.246 1.054t0.246 1.054q0.256 0.463 0.689 0.719 0.443 0.246 0.994 0.246zM59.746 4.417v7.306h-0.669v-1.024c-0.203 0.338-0.487 0.61-0.826 0.792l-0.011 0.006c-0.325 0.174-0.711 0.276-1.121 0.276-0.015 0-0.029-0-0.043-0l0.002 0c-0.011 0-0.023 0-0.036 0-0.471 0-0.914-0.124-1.296-0.342l0.013 0.007c-0.392-0.222-0.707-0.54-0.919-0.923l-0.006-0.012q-0.335-0.601-0.335-1.369t0.335-1.369c0.217-0.393 0.533-0.708 0.914-0.92l0.012-0.006c0.369-0.211 0.812-0.335 1.283-0.335 0.013 0 0.025 0 0.038 0l-0.002-0q0.63 0 1.132 0.266c0.347 0.177 0.63 0.435 0.832 0.75l0.005 0.008v-3.111zM57.136 11.152q0.542 0 0.975-0.246 0.443-0.256 0.689-0.719 0.256-0.463 0.256-1.054t-0.256-1.054q-0.246-0.463-0.689-0.709c-0.272-0.161-0.6-0.256-0.949-0.256-0.009 0-0.018 0-0.027 0h0.001q-0.551 0-0.994 0.256-0.433 0.246-0.689 0.709-0.246 0.463-0.246 1.054t0.246 1.054q0.256 0.463 0.689 0.719 0.443 0.246 0.994 0.246zM61.693 6.544h0.699v5.179h-0.699zM62.047 5.411c-0.004 0-0.008 0-0.013 0-0.138 0-0.262-0.057-0.352-0.148l-0-0c-0.091-0.089-0.148-0.214-0.148-0.352 0-0.001 0-0.002 0-0.003v0q0-0.197 0.148-0.345t0.364-0.148 0.364 0.148q0.148 0.138 0.148 0.335 0 0.217-0.148 0.364c-0.089 0.091-0.214 0.148-0.352 0.148-0.004 0-0.009-0-0.013-0h0.001zM66.976 6.504q0.975 0 1.546 0.571 0.581 0.561 0.581 1.644v3.003h-0.699v-2.934q0-0.807-0.404-1.231t-1.152-0.423q-0.837 0-1.329 0.502-0.482 0.492-0.482 1.369v2.718h-0.699v-5.179h0.67v0.955q0.286-0.473 0.788-0.729 0.512-0.266 1.182-0.266zM75.815 6.544v4.549q0 1.319-0.65 1.95-0.64 0.64-1.94 0.64c-0.008 0-0.017 0-0.026 0-0.48 0-0.942-0.079-1.373-0.226l0.030 0.009q-0.64-0.207-1.044-0.581l0.354-0.532q0.374 0.335 0.906 0.522 0.542 0.187 1.132 0.187 0.985 0 1.447-0.463 0.463-0.453 0.463-1.418v-0.66q-0.325 0.492-0.857 0.748c-0.331 0.162-0.72 0.256-1.131 0.256-0.011 0-0.022-0-0.032-0h0.002c-0.010 0-0.023 0-0.035 0-0.473 0-0.918-0.117-1.31-0.323l0.015 0.007c-0.389-0.214-0.706-0.518-0.929-0.885l-0.006-0.011c-0.211-0.365-0.335-0.803-0.335-1.271 0-0.014 0-0.027 0-0.041l-0 0.002q0-0.729 0.335-1.3 0.345-0.571 0.935-0.886c0.374-0.199 0.818-0.315 1.288-0.315 0.014 0 0.029 0 0.043 0l-0.002-0q0.66 0 1.191 0.266t0.857 0.768v-0.994zM73.166 10.905q0.561 0 1.014-0.236 0.453-0.246 0.699-0.679 0.256-0.433 0.256-0.985c0-0.011 0-0.024 0-0.036 0-0.346-0.095-0.67-0.261-0.947l0.005 0.008c-0.165-0.287-0.403-0.516-0.69-0.665l-0.009-0.004q-0.443-0.246-1.014-0.246-0.561 0-1.014 0.236-0.443 0.236-0.699 0.67-0.246 0.433-0.246 0.985t0.246 0.985q0.256 0.433 0.699 0.679 0.453 0.236 1.014 0.236zM63.965 18.658q-0.207 0.303-0.461 0.726c-0.114 0.179-0.295 0.488-0.469 0.801l-0.075 0.146q-0.245 0.438-0.485 0.933c-0.204 0.394-0.49 1.021-0.759 1.656l-0.093 0.248c-0.079 0.147-0.283 0.654-0.48 1.164l-0.126 0.37q-0.049 0.12-0.172 0.12c-0.002 0-0.004 0-0.006 0-0.040 0-0.077-0.015-0.106-0.039l0 0c-0.031-0.027-0.053-0.063-0.062-0.105l-0-0.001-0.048-0.202q-0.043-0.201-0.121-0.533-0.077-0.336-0.177-0.77c-0.153-0.741-0.224-1.047-0.298-1.351l0.091 0.443q-0.105-0.476-0.216-0.962t-0.207-0.923c-0.233 0.67-0.452 1.203-0.696 1.721l0.047-0.111c-0.216 0.474-0.438 0.872-0.686 1.252l0.022-0.036c-0.213 0.326-0.445 0.609-0.706 0.865l-0.001 0.001c-0.22 0.217-0.47 0.406-0.742 0.558l-0.017 0.009q-0.394 0.212-0.832 0.304c-0.268 0.057-0.575 0.090-0.89 0.090-0.010 0-0.020-0-0.029-0h0.002q-0.25 0-0.533-0.057c-0.213-0.041-0.402-0.099-0.581-0.175l0.018 0.007c-0.204-0.085-0.38-0.182-0.543-0.294l0.010 0.006c-0.172-0.118-0.32-0.253-0.449-0.405l-0.003-0.003c-0.127-0.154-0.233-0.333-0.309-0.526l-0.005-0.013c-0.073-0.193-0.115-0.416-0.115-0.649 0-0.008 0-0.017 0-0.025v0.001q0-0.389 0.163-0.711 0.164-0.327 0.443-0.558 0.278-0.235 0.643-0.365 0.37-0.13 0.779-0.13 0.297 0 0.533 0.052 0.24 0.049 0.423 0.125 0.183 0.077 0.313 0.169 0.13 0.090 0.217 0.168 0.086 0.076 0.125 0.135c0.012 0.020 0.027 0.037 0.043 0.052l0 0c0.017 0.029 0.028 0.064 0.029 0.101v0c-0.001 0.049-0.020 0.093-0.053 0.126v0c-0.030 0.035-0.075 0.058-0.125 0.058-0.002 0-0.003-0-0.005-0h0c-0.001 0-0.002 0-0.003 0-0.063 0-0.119-0.032-0.151-0.081l-0-0.001-0.077-0.086c-0.067-0.073-0.145-0.136-0.231-0.185l-0.005-0.003c-0.121-0.072-0.261-0.134-0.409-0.179l-0.013-0.003c-0.173-0.052-0.371-0.083-0.576-0.083-0.017 0-0.034 0-0.051 0.001l0.003-0q-0.336 0-0.64 0.106c-0.201 0.068-0.375 0.166-0.526 0.29l0.003-0.002q-0.222 0.188-0.356 0.447c-0.082 0.16-0.13 0.349-0.13 0.55 0 0.005 0 0.009 0 0.014v-0.001q0 0.302 0.101 0.553t0.269 0.447c0.112 0.131 0.241 0.244 0.383 0.337l0.007 0.004q0.222 0.144 0.461 0.24 0.241 0.090 0.481 0.14 0.246 0.043 0.462 0.043 0.366 0 0.711-0.052 0.35-0.057 0.688-0.212 0.341-0.154 0.668-0.423 0.328-0.27 0.649-0.702 0.322-0.432 0.635-1.043c0.288-0.55 0.566-1.205 0.794-1.883l0.029-0.098q0.091-0.288 0.187-0.581c-0.036-0.164-0.078-0.409-0.112-0.657l-0.007-0.065c-0.018-0.145-0.030-0.317-0.034-0.49l-0-0.005q0-0.212 0.033-0.336c0.017-0.072 0.047-0.135 0.088-0.189l-0.001 0.001c0.028-0.039 0.067-0.068 0.113-0.082l0.002-0q0.063-0.019 0.121-0.019c0.038 0.001 0.075 0.008 0.109 0.020l-0.002-0.001q0.062 0.019 0.11 0.086 0.053 0.062 0.087 0.188 0.033 0.125 0.033 0.336 0 0.23-0.043 0.533c-0.040 0.271-0.085 0.497-0.14 0.72l0.011-0.051q0.062 0.293 0.144 0.654t0.168 0.75l0.356 1.577 0.164 0.735 0.148 0.634q0.13-0.327 0.318-0.788 0.187-0.468 0.418-0.986 0.23-0.523 0.485-1.062 0.259-0.544 0.529-1.025c0.269-0.489 0.5-0.87 0.744-1.243l-0.046 0.076q0.317-0.491 0.547-0.808c0.169-0.238 0.335-0.444 0.511-0.642l-0.006 0.007c0.033-0.033 0.078-0.053 0.128-0.053 0.001 0 0.002 0 0.002 0h-0q0.082 0 0.13 0.057c0.033 0.031 0.053 0.075 0.053 0.124 0 0.025-0.005 0.048-0.015 0.070l0-0.001q0 0.005-0.057 0.144-0.054 0.135-0.139 0.375-0.082 0.235-0.183 0.558c-0.129 0.384-0.256 0.873-0.356 1.373l-0.014 0.084c-0.067 0.346-0.114 0.752-0.13 1.167l-0 0.015c-0.007 0.115-0.010 0.249-0.010 0.384 0 0.23 0.011 0.458 0.032 0.683l-0.002-0.029q0.029 0.322 0.096 0.62c0.050 0.216 0.113 0.404 0.191 0.583l-0.008-0.021q0.115 0.26 0.284 0.457 0.167 0.197 0.399 0.318 0.236 0.12 0.543 0.13c0.050 0.001 0.094 0.028 0.119 0.067l0 0.001q0.049 0.057 0.048 0.125c0 0 0 0 0 0 0 0.047-0.020 0.090-0.052 0.12l-0 0c-0.030 0.032-0.073 0.053-0.12 0.053-0.002 0-0.004-0-0.005-0h0q-0.077 0-0.153-0.014c-0.228-0.029-0.434-0.099-0.619-0.201l0.009 0.005c-0.177-0.103-0.328-0.228-0.455-0.374l-0.002-0.002c-0.125-0.147-0.233-0.314-0.317-0.495l-0.006-0.014c-0.077-0.173-0.146-0.378-0.197-0.591l-0.005-0.025c-0.048-0.192-0.087-0.423-0.109-0.659l-0.002-0.020c-0.017-0.21-0.027-0.455-0.027-0.702 0-0.307 0.015-0.61 0.045-0.908l-0.003 0.038c0.062-0.611 0.162-1.162 0.301-1.697l-0.017 0.077q0.096-0.381 0.197-0.707zM69.498 23.509l-0.082 0.164q-0.057 0.119-0.153 0.279c-0.077 0.13-0.148 0.239-0.225 0.343l0.008-0.012q-0.125 0.173-0.279 0.317t-0.332 0.24c-0.109 0.058-0.238 0.091-0.375 0.092h-0c-0.005 0-0.012 0-0.018 0-0.175 0-0.335-0.068-0.453-0.179l0 0c-0.124-0.121-0.218-0.271-0.272-0.44l-0.002-0.008q-0.164 0.274-0.39 0.437c-0.124 0.095-0.28 0.154-0.45 0.159l-0.001 0c-0.002 0-0.004 0-0.007 0-0.114 0-0.223-0.023-0.321-0.065l0.005 0.002c-0.096-0.045-0.178-0.106-0.245-0.181l-0.001-0.001c-0.066-0.079-0.12-0.172-0.156-0.273l-0.002-0.006c-0.034-0.099-0.053-0.214-0.053-0.333 0-0.005 0-0.009 0-0.014v0.001q0-0.375 0.126-0.659 0.13-0.289 0.327-0.481c0.12-0.121 0.264-0.218 0.424-0.285l0.009-0.003q0.24-0.096 0.462-0.096 0.149 0 0.274 0.043 0.126 0.039 0.212 0.087 0.090 0.048 0.139 0.091l0.052 0.044q0.053 0.062 0.053 0.13c-0.001 0.050-0.021 0.096-0.053 0.13l0-0c-0.030 0.033-0.073 0.053-0.121 0.053-0.001 0-0.003 0-0.004-0h0c-0 0-0.001 0-0.002 0-0.050 0-0.095-0.020-0.128-0.053v0c-0.012-0.010-0.026-0.021-0.041-0.031l-0.003-0.002c-0.027-0.022-0.056-0.041-0.088-0.057l-0.003-0.001c-0.040-0.020-0.086-0.036-0.135-0.048l-0.004-0.001c-0.049-0.015-0.106-0.024-0.164-0.024-0.005 0-0.010 0-0.015 0h0.001q-0.148 0-0.318 0.067t-0.308 0.212c-0.097 0.1-0.177 0.218-0.233 0.348l-0.003 0.007c-0.058 0.14-0.091 0.303-0.091 0.473 0 0.078 0.007 0.153 0.020 0.227l-0.001-0.008c0.013 0.064 0.036 0.12 0.068 0.17l-0.001-0.002c0.033 0.052 0.076 0.094 0.128 0.125l0.002 0.001c0.056 0.030 0.122 0.048 0.192 0.048 0.003 0 0.007-0 0.010-0h-0.001q0.086 0 0.197-0.057c0.086-0.045 0.158-0.104 0.216-0.177l0.001-0.001q0.106-0.12 0.188-0.304 0.086-0.181 0.12-0.432c0.006-0.045 0.029-0.084 0.063-0.11l0-0c0.032-0.030 0.075-0.048 0.123-0.048 0.001 0 0.001 0 0.002 0h-0q0.068 0 0.115 0.053c0.032 0.031 0.053 0.072 0.057 0.119l0 0.001 0.020 0.26q0.015 0.162 0.062 0.327 0.053 0.164 0.154 0.284c0.064 0.074 0.157 0.12 0.262 0.12 0.006 0 0.012-0 0.018-0l-0.001 0c0.083-0.001 0.161-0.024 0.228-0.064l-0.002 0.001q0.116-0.062 0.222-0.164 0.111-0.104 0.207-0.235c0.117-0.154 0.226-0.327 0.318-0.51l0.009-0.019 0.106-0.216c0.015-0.034 0.038-0.062 0.067-0.082l0.001-0c0.029-0.018 0.064-0.028 0.101-0.029h0c0.001-0 0.003-0 0.005-0 0.051 0 0.096 0.024 0.124 0.062l0 0c0.032 0.032 0.052 0.076 0.053 0.125v0c-0 0.024-0.006 0.048-0.015 0.068l0-0.001zM70.907 25.323q0.903-1.179 1.255-1.957c0.026-0.063 0.087-0.106 0.158-0.107h0q0.081 0 0.135 0.057c0.033 0.031 0.053 0.075 0.053 0.124 0 0.025-0.005 0.048-0.015 0.070l0-0.001q-0.212 0.48-0.601 1.072-0.39 0.591-0.985 1.337 0 0.303 0.005 0.606t0.005 0.664-0.020 0.711c-0.010 0.25-0.031 0.482-0.062 0.711l0.004-0.038c-0.029 0.226-0.072 0.426-0.128 0.62l0.007-0.029c-0.045 0.179-0.111 0.336-0.197 0.48l0.005-0.008c-0.070 0.127-0.166 0.232-0.281 0.311l-0.003 0.002c-0.104 0.072-0.233 0.115-0.371 0.115-0.006 0-0.012-0-0.019-0l0.001 0c-0.007 0-0.016 0.001-0.025 0.001-0.194 0-0.365-0.096-0.469-0.243l-0.001-0.002q-0.172-0.246-0.172-0.697 0-0.24 0.043-0.524 0.049-0.278 0.135-0.577t0.207-0.606q0.126-0.303 0.274-0.591 0.148-0.29 0.322-0.553 0.177-0.264 0.375-0.481 0.004-0.336 0.004-0.669 0.005-0.331 0.015-0.61c-0.093 0.119-0.209 0.216-0.341 0.286l-0.006 0.003q-0.197 0.105-0.394 0.106c-0.003 0-0.006 0-0.009 0-0.108 0-0.211-0.023-0.304-0.065l0.005 0.002c-0.091-0.046-0.167-0.108-0.23-0.181l-0.001-0.001c-0.063-0.079-0.114-0.172-0.147-0.273l-0.002-0.006c-0.034-0.099-0.053-0.214-0.053-0.333 0-0.005 0-0.009 0-0.014v0.001q0-0.375 0.126-0.659 0.13-0.289 0.327-0.481c0.12-0.121 0.264-0.218 0.424-0.285l0.009-0.003q0.24-0.096 0.462-0.096 0.149 0 0.274 0.038 0.126 0.039 0.212 0.087c0.074 0.038 0.137 0.084 0.192 0.139l0 0q0.053 0.057 0.053 0.13c-0.001 0.050-0.021 0.096-0.053 0.13l0-0c-0.030 0.033-0.073 0.053-0.121 0.053-0.001 0-0.003 0-0.004-0h0c-0.050-0.001-0.096-0.021-0.13-0.053l0 0-0.053-0.039c-0.055-0.050-0.123-0.087-0.199-0.105l-0.003-0.001c-0.044-0.012-0.095-0.019-0.147-0.019-0.006 0-0.012 0-0.018 0l0.001-0q-0.143 0-0.317 0.067c-0.125 0.046-0.233 0.115-0.322 0.202l0-0q-0.149 0.14-0.25 0.361c-0.064 0.144-0.101 0.312-0.101 0.489 0 0.012 0 0.024 0.001 0.036l-0-0.002q0 0.231 0.101 0.375 0.101 0.14 0.312 0.14c0.078-0.002 0.151-0.023 0.215-0.059l-0.002 0.001c0.087-0.046 0.16-0.106 0.221-0.177l0.001-0.001q0.105-0.12 0.182-0.304c0.054-0.125 0.095-0.271 0.114-0.423l0.001-0.008c0.006-0.045 0.029-0.084 0.063-0.11l0-0c0.032-0.030 0.075-0.048 0.123-0.048 0.001 0 0.001 0 0.002 0h-0q0.082 0 0.125 0.057 0.049 0.057 0.048 0.13l-0.005 0.148q-0.005 0.14-0.010 0.375l-0.014 0.548zM70.542 26.375q-0.226 0.313-0.409 0.679c-0.102 0.2-0.208 0.446-0.298 0.699l-0.014 0.046q-0.13 0.375-0.202 0.726c-0.041 0.19-0.065 0.409-0.067 0.633v0.001q0 0.178 0.029 0.284c0.018 0.062 0.044 0.116 0.078 0.165l-0.001-0.002q0.048 0.057 0.102 0.077 0.057 0.019 0.106 0.019c0.103-0.001 0.196-0.047 0.259-0.119l0-0c0.079-0.091 0.143-0.198 0.185-0.316l0.002-0.007q0.077-0.197 0.126-0.457t0.072-0.538q0.025-0.274 0.033-0.548 0.011-0.274 0.010-0.505v-0.414q0-0.207-0.009-0.423zM72.95 21.076c0 0.002 0 0.004 0 0.006 0 0.12-0.050 0.229-0.13 0.306l-0 0c-0.075 0.078-0.18 0.126-0.296 0.126-0.004 0-0.009-0-0.013-0h0.001c-0.002 0-0.004 0-0.006 0-0.119 0-0.227-0.048-0.306-0.126l0 0c-0.078-0.078-0.126-0.186-0.126-0.306 0-0.002 0-0.004 0-0.006v0q0-0.092 0.033-0.169c0.022-0.054 0.053-0.101 0.092-0.139v0q0.062-0.062 0.139-0.096c0.050-0.021 0.109-0.034 0.171-0.034s0.12 0.012 0.174 0.035l-0.003-0.001c0.055 0.023 0.101 0.056 0.139 0.096l0 0q0.062 0.057 0.096 0.14 0.033 0.077 0.034 0.168zM72.171 23.894q0-0.692 0.086-1.38c0.006-0.045 0.027-0.085 0.057-0.115l0-0c0.033-0.033 0.078-0.053 0.128-0.053 0.002 0 0.005 0 0.007 0h-0q0.071 0 0.12 0.057 0.049 0.053 0.048 0.126 0 0.029-0.015 0.172-0.010 0.145-0.029 0.347l-0.029 0.423q-0.010 0.222-0.010 0.409 0 0.254 0.048 0.414c0.030 0.092 0.074 0.172 0.131 0.242l-0.001-0.001c0.045 0.051 0.101 0.090 0.165 0.114l0.003 0.001c0.052 0.018 0.111 0.029 0.173 0.030h0q0.135 0 0.279-0.096c0.111-0.078 0.208-0.167 0.291-0.267l0.002-0.002q0.154-0.172 0.308-0.414 0.153-0.246 0.304-0.543c0.015-0.031 0.038-0.055 0.066-0.072l0.001-0c0.026-0.018 0.058-0.029 0.093-0.029 0.001 0 0.002 0 0.003 0h-0q0.076 0 0.125 0.057c0.032 0.032 0.052 0.076 0.052 0.125v0c0 0.002 0 0.004 0 0.005 0 0.028-0.007 0.054-0.019 0.077l0-0.001q-0.057 0.111-0.144 0.269c-0.14 0.253-0.286 0.47-0.449 0.673l0.007-0.009c-0.087 0.109-0.178 0.207-0.277 0.296l-0.002 0.002c-0.091 0.080-0.193 0.151-0.303 0.208l-0.008 0.004c-0.101 0.052-0.22 0.083-0.346 0.083-0.134 0-0.26-0.034-0.369-0.095l0.004 0.002c-0.111-0.063-0.204-0.145-0.277-0.243l-0.002-0.002c-0.073-0.103-0.131-0.224-0.167-0.353l-0.002-0.008c-0.033-0.133-0.053-0.285-0.053-0.442 0-0.003 0-0.006 0-0.010v0zM72.681 21.076c0-0.001 0-0.001 0-0.002 0-0.045-0.020-0.086-0.052-0.113l-0-0c-0.027-0.033-0.068-0.053-0.114-0.053-0.001 0-0.001 0-0.002 0h0c-0 0-0.001 0-0.001 0-0.046 0-0.086 0.021-0.113 0.053l-0 0c-0.030 0.029-0.049 0.070-0.049 0.115v0q0 0.067 0.049 0.116 0.047 0.049 0.115 0.048t0.115-0.048c0.033-0.027 0.053-0.068 0.053-0.114 0-0 0-0.001 0-0.001v0zM77.378 23.52l-0.101 0.192q-0.067 0.14-0.188 0.318-0.115 0.172-0.279 0.361c-0.224 0.266-0.51 0.471-0.837 0.596l-0.014 0.005c-0.164 0.064-0.354 0.101-0.552 0.101-0.005 0-0.011-0-0.016-0h0.001q-0.274 0-0.486-0.101c-0.144-0.065-0.265-0.158-0.36-0.272l-0.001-0.002c-0.097-0.121-0.174-0.264-0.223-0.418l-0.003-0.009q-0.076-0.246-0.077-0.544c-0-0.004-0-0.008-0-0.013 0-0.188 0.030-0.369 0.086-0.538l-0.003 0.012q0.081-0.254 0.222-0.442 0.144-0.187 0.332-0.293c0.113-0.069 0.25-0.11 0.397-0.11 0.105 0 0.205 0.021 0.296 0.059l-0.005-0.002c0.085 0.034 0.156 0.083 0.216 0.144l0 0q0.092 0.091 0.139 0.202c0.033 0.064 0.053 0.141 0.053 0.221v0c0 0.001 0 0.003 0 0.005 0 0.069-0.010 0.135-0.030 0.197l0.001-0.005c-0.016 0.062-0.040 0.116-0.069 0.166l0.002-0.003c-0.025 0.043-0.055 0.080-0.091 0.11l-0.001 0c-0.031 0.024-0.070 0.038-0.112 0.038-0.050 0-0.096-0.020-0.129-0.053v0c-0.030-0.033-0.048-0.077-0.048-0.125 0-0.002 0-0.003 0-0.005v0q0-0.039 0.014-0.067l0.039-0.057c0.036-0.052 0.058-0.116 0.058-0.185 0-0.004-0-0.008-0-0.012l0 0.001q0-0.102-0.096-0.183c-0.059-0.051-0.136-0.082-0.221-0.082-0.005 0-0.010 0-0.016 0l0.001-0c-0.097 0.001-0.187 0.032-0.261 0.083l0.002-0.001c-0.084 0.061-0.154 0.134-0.21 0.218l-0.002 0.003q-0.091 0.135-0.149 0.322c-0.033 0.114-0.053 0.244-0.053 0.379 0 0.003 0 0.007 0 0.010v-0.001q0 0.197 0.048 0.375 0.049 0.178 0.144 0.318 0.096 0.135 0.24 0.217 0.149 0.082 0.351 0.082 0.259 0 0.481-0.092 0.222-0.096 0.404-0.24 0.184-0.144 0.322-0.312 0.139-0.173 0.236-0.322c0.080-0.117 0.154-0.252 0.215-0.393l0.006-0.016c0.012-0.031 0.033-0.056 0.061-0.072l0.001-0c0.029-0.018 0.064-0.029 0.102-0.029h0q0.082 0 0.13 0.057 0.052 0.057 0.052 0.13c-0.002 0.028-0.009 0.055-0.019 0.079l0.001-0.002z"></path>
</symbol>
<symbol id="icon-unroll" viewBox="0 0 53 32">
<path stroke-linejoin="round" stroke-linecap="round" stroke-miterlimit="4" stroke-width="4" d="M50 2l-24 26.667-24-26.667"></path>
</symbol>
<symbol id="icon-lupe" viewBox="0 0 32 32">
<path stroke-linejoin="miter" stroke-linecap="butt" stroke-miterlimit="4" stroke-width="4" d="M24.088 13.044c0 6.099-4.945 11.044-11.044 11.044s-11.044-4.945-11.044-11.044c0-6.099 4.945-11.044 11.044-11.044s11.044 4.945 11.044 11.044z"></path>
<path d="M28.586 31.414c0.359 0.347 0.849 0.561 1.389 0.561 1.105 0 2-0.895 2-2 0-0.54-0.214-1.030-0.562-1.39l0.001 0.001zM22.936 20.108l-1.414-1.414-2.828 2.828 1.414 1.414zM31.416 28.586l-8.48-8.48-2.828 2.83 8.478 8.48z"></path>
</symbol>
<symbol id="icon-arrow" viewBox="0 0 16 32">
<path stroke-linejoin="miter" stroke-linecap="butt" stroke-miterlimit="4" stroke-width="0.3168" d="M16.066 0.112l-15.842 15.842 15.842 15.842"></path>
</symbol>
</defs>
</svg>
